HIERARCHY
ROOT Hips
{
  OFFSET 0 0 0
  CHANNELS 6 Xposition Yposition Zposition Zrotation Yrotation Xrotation
  JOINT LeftThigh
  {
    OFFSET 8.409438 0 -5.917753
    CHANNELS 3 Zrotation Yrotation Xrotation
    JOINT LeftLeg
    {
      OFFSET 0 0 -42.358652
      CHANNELS 3 Zrotation Yrotation Xrotation
      JOINT LeftFoot
      {
        OFFSET 0 0 -39.357303
        CHANNELS 3 Zrotation Yrotation Xrotation
      }
    }
  }
  JOINT RightThigh
  {
    OFFSET -8.409438 0 -5.917753
    CHANNELS 3 Zrotation Yrotation Xrotation
    JOINT RightLeg
    {
      OFFSET 0 0 -42.358652
      CHANNELS 3 Zrotation Yrotation Xrotation
      JOINT RightFoot
      {
        OFFSET 0 0 -39.357303
        CHANNELS 3 Zrotation Yrotation Xrotation
      }
    }
  }
  JOINT SpineLow
  {
    OFFSET 0 0 4.719101
    CHANNELS 3 Zrotation Yrotation Xrotation
    JOINT SpineMid
    {
      OFFSET 0 0 12.899191
      CHANNELS 3 Zrotation Yrotation Xrotation
      JOINT Chest
      {
        OFFSET 0 0 12.899191
        CHANNELS 3 Zrotation Yrotation Xrotation
        JOINT LeftShoulder
        {
          OFFSET 7.550562 1.41573 9.438202
          CHANNELS 3 Zrotation Yrotation Xrotation
          JOINT LeftArm
          {
            OFFSET 9.155056 0 4.247191
            CHANNELS 3 Zrotation Yrotation Xrotation
            JOINT LeftForearm
            {
              OFFSET 0 0 25.771955
              CHANNELS 3 Zrotation Yrotation Xrotation
              JOINT LeftHand
              {
                OFFSET 0 0 25.197169
                CHANNELS 3 Zrotation Yrotation Xrotation
              }
            }
          }
        }
        JOINT RightShoulder
        {
          OFFSET -7.550562 1.41573 9.438202
          CHANNELS 3 Zrotation Yrotation Xrotation
          JOINT RightArm
          {
            OFFSET -9.155056 0 4.247191
            CHANNELS 3 Zrotation Yrotation Xrotation
            JOINT RightForearm
            {
              OFFSET 0 0 -25.771955
              CHANNELS 3 Zrotation Yrotation Xrotation
              JOINT RightHand
              {
                OFFSET 0 0 -25.197169
                CHANNELS 3 Zrotation Yrotation Xrotation
              }
            }
          }
        }
        JOINT Neck
        {
          OFFSET 0 0 15.101124
          CHANNELS 3 Zrotation Yrotation Xrotation
          JOINT Head
          {
            OFFSET 0 0 11.325843
            CHANNELS 3 Zrotation Yrotation Xrotation
            End Site
            {
              OFFSET 0 0 14.157303
            }
          }
        }
      }
    }
  }
}
MOTION
Frames: 14
Frame Time: 0.0
0.0  93.25843  0.0  -3.293273  40.25707  -98.492825  18.091927  -26.261969  15.874442  -5.497009  1.597904  13.507676  1.019252  2.103569  1.854728  -19.687454  -7.154891  -29.211187  -1.700244  20.249336  39.65067  -2.496682  1.806303  2.993112  -0.335388  -0.572667  2.482063  -0.974537  -1.528997  6.793384  -0.974537  -1.528997  6.793383  -15.335591  23.471249  9.914513  138.333995  47.339419  -160.831057  -18.986269  -2.432848  80.057125  62.309665  -7.067399  10.588114  11.57773  -9.640825  11.448782  -41.257381  78.628046  -76.618799  -32.688016  -51.042502  -80.90431  63.450626  9.605677  -5.297719  -17.692266  2.05797  10.777458  -13.308981  1.232983  8.149953  
0.0  93.25843  0.0  -2.863634  41.067468  -97.991087  18.461676  -25.418589  15.296999  -5.233981  0.89092  13.580124  -0.096149  2.09151  1.563425  -21.724354  -7.065079  -29.384215  -0.198322  19.539225  39.520622  -2.375226  1.772991  2.886036  -0.30493  -0.455733  2.445578  -0.878662  -1.213399  6.691063  -0.878662  -1.213399  6.691062  -15.347687  23.044826  10.625298  140.069913  47.328514  -159.687929  -18.790042  -1.79492  79.028037  62.759803  -6.158129  10.304085  11.095913  -9.883465  11.342921  -32.306588  78.032493  -67.616265  -31.498048  -50.939875  -82.781668  63.609532  9.409711  -5.326832  -18.216417  1.8666  10.979296  -13.699894  1.074031  8.298176  
0.0  93.25843  0.0  -2.557474  42.159548  -97.451515  17.610891  -24.234268  14.914047  -4.996355  0.08086  13.586814  -0.604645  2.253739  1.270491  -24.28235  -7.126964  -29.566084  1.473428  18.762458  39.375017  -2.038678  1.661243  2.718446  -0.356021  -0.389623  2.377762  -1.010426  -1.028806  6.505435  -1.010426  -1.028806  6.505435  -15.450093  22.875799  11.095186  141.671284  47.354708  -158.747888  -18.955881  -1.353208  78.137253  62.885087  -5.26675  10.228588  10.875148  -10.208322  11.323774  -25.57521  77.738282  -60.655798  -30.558908  -50.532283  -84.645085  63.84481  9.151907  -5.306962  -18.63759  1.85558  11.155604  -14.016394  1.052838  8.431916  
0.0  93.25843  0.0  -2.336267  43.287988  -96.931717  15.949317  -22.926249  14.807064  -4.799006  -0.45582  13.253245  -0.09677  2.309498  1.308335  -26.770871  -7.226955  -29.806313  2.935297  17.955466  39.220041  -1.683859  1.552021  2.577943  -0.420414  -0.379391  2.308834  -1.184235  -0.995793  6.317785  -1.184235  -0.995793  6.317785  -15.704701  22.89967  11.282213  142.968676  47.424071  -157.988716  -19.044106  -0.919689  77.336574  62.930195  -4.533992  10.060649  10.637307  -10.442206  11.295002  -20.034619  77.623239  -54.897563  -29.830369  -49.994735  -86.373577  64.028272  8.851067  -5.278762  -19.009064  1.956758  11.253988  -14.29721  1.119025  8.510361  
0.0  93.25843  0.0  -1.978134  43.742542  -96.205293  14.960934  -22.299246  14.724747  -4.801988  -0.221003  12.611636  0.672397  2.29999  1.571279  -28.210036  -7.214932  -30.315962  3.794445  17.282839  39.075113  -0.850918  1.406537  2.53925  -0.423273  -0.377835  2.202395  -1.190344  -0.993228  6.026846  -1.190344  -0.993228  6.026847  -15.792134  23.042326  11.418502  143.984182  47.50504  -157.465644  -19.235835  -0.58492  76.53958  62.927557  -3.985241  10.015558  10.305467  -10.504073  11.345374  -13.96104  77.552909  -48.917896  -29.220852  -49.433124  -88.101016  64.33714  8.497849  -5.222721  -19.274326  2.12843  11.346428  -14.49954  1.24021  8.586169  
0.0  93.25843  0.0  -1.460417  43.411082  -95.072913  15.207639  -21.92789  14.299102  -4.774481  0.089791  12.009535  1.070415  2.32445  1.685881  -28.404599  -6.959498  -31.207871  4.093875  16.432723  39.017257  -0.68536  1.342333  2.409668  -0.303266  -0.353668  2.048462  -0.85826  -0.940227  5.603949  -0.85826  -0.940227  5.60395  -15.955774  23.085407  11.444116  144.616853  47.609352  -157.251786  -19.442638  -0.303457  75.92199  63.050606  -3.527165  9.783057  10.068549  -10.621896  11.403424  -8.467459  77.272861  -43.386807  -28.470307  -48.894024  -89.984309  64.666192  8.13476  -5.215272  -19.492137  2.182915  11.423795  -14.66423  1.27465  8.646941  
0.0  93.25843  0.0  -0.979003  42.872718  -93.992206  15.933071  -21.538244  14.021111  -4.686663  0.123497  11.325392  0.950484  2.449494  1.627216  -27.697964  -6.445238  -32.074434  3.493942  15.786634  38.837965  -0.078052  1.214065  2.425204  -0.451612  -0.231598  1.806384  -1.250967  -0.5989  4.941822  -1.250967  -0.5989  4.941822  -14.074642  22.872584  12.130832  145.135601  47.768936  -157.238696  -19.685069  -0.086407  75.56659  63.217882  -3.175527  9.356557  11.505574  -11.182553  12.07626  -2.388387  76.807562  -37.488056  -27.947294  -47.931422  -91.653863  64.518256  7.933556  -5.61823  -18.673494  2.179345  11.801404  -14.051748  1.275662  8.926527  
0.0  93.25843  0.0  -0.581656  42.559605  -93.42332  16.093637  -21.127012  14.341059  -4.526064  -0.006196  10.551788  0.769835  2.615347  1.557931  -26.737814  -5.58437  -32.512431  2.238881  15.508079  38.608883  -0.017604  1.113774  2.362423  -0.365024  -0.189364  1.722572  -1.010675  -0.491303  4.711294  -1.010675  -0.491303  4.711294  -14.345144  22.716142  12.121491  145.471576  48.111052  -157.370044  -19.892842  0.180444  75.361208  63.329583  -3.106335  8.754738  11.025688  -11.289226  12.28471  2.542402  76.053213  -32.688056  -26.483919  -47.56729  -94.272084  64.729412  7.632815  -5.91497  -18.774756  1.99805  11.80178  -14.124491  1.137513  8.921869  
0.0  93.25843  0.0  -0.23528  42.100369  -93.0221  15.822415  -20.608695  14.833674  -4.382392  -0.107731  9.783385  0.848337  2.815768  1.621847  -25.45375  -4.661973  -32.805908  0.954081  15.215225  38.488628  -0.063587  1.045221  2.299547  -0.30125  -0.134699  1.671149  -0.832295  -0.34717  4.569555  -0.832295  -0.34717  4.569555  -14.587349  22.493612  11.998496  145.796032  48.632109  -157.577449  -20.169535  0.614026  75.313642  63.391388  -3.218044  8.131395  10.370216  -11.314606  12.363107  8.048059  75.15339  -27.617793  -24.472216  -47.255695  -97.283182  64.891599  7.434964  -6.211098  -19.354705  1.681261  11.498342  -14.552751  0.897979  8.686775  
0.0  93.25843  0.0  0.119268  41.550426  -92.72511  15.316318  -19.977876  15.424573  -4.187507  -0.215883  9.129279  1.319753  2.913831  1.642355  -24.011623  -3.795382  -32.894881  -0.765857  15.523371  38.165906  -0.105524  0.968349  2.147497  -0.224159  -0.102376  1.652133  -0.619382  -0.264374  4.516867  -0.619382  -0.264374  4.516867  -15.093985  22.469583  11.704646  145.954027  49.379948  -157.855166  -20.614011  1.038806  75.395998  63.222858  -3.494116  7.626764  9.85468  -11.193494  12.460046  12.118345  74.107689  -23.804833  -22.233553  -46.828125  -100.493698  64.998389  7.003143  -6.443163  -19.300225  1.506208  11.276016  -14.508008  0.774524  8.514218  
0.0  93.25843  0.0  0.405561  41.17878  -92.405473  14.623582  -19.267767  15.87336  -3.986681  -0.385982  8.555761  1.893229  3.002222  1.73603  -22.879117  -3.09113  -33.068767  -2.529153  15.989676  37.903555  -0.066855  0.916448  1.937376  -0.37648  -0.016943  1.579562  -1.029673  -0.021707  4.317719  -1.029673  -0.021707  4.317719  -15.274683  22.033297  11.331695  146.916332  49.876542  -157.910009  -21.189349  1.240474  75.642632  62.717963  -3.967478  7.218741  10.451889  -11.405203  12.794738  15.856046  73.039219  -20.478476  -19.603609  -46.257692  -103.764556  65.225094  6.705032  -6.441275  -18.520073  1.373836  11.217832  -13.920192  0.691228  8.463868  
0.0  93.25843  0.0  0.656541  40.922205  -92.016999  14.122277  -18.690877  16.195309  -3.699409  -0.596774  7.961731  2.293647  3.056576  1.795722  -22.093728  -2.600374  -33.298059  -4.172913  16.526206  37.619816  -0.123181  0.831121  1.735153  -0.409004  -0.019872  1.527675  -1.118714  -0.028463  4.175945  -1.118714  -0.028463  4.175945  -15.708921  22.171588  11.099364  146.746361  50.951696  -158.153252  -21.81064  1.212178  76.120742  62.095594  -4.615915  6.787827  9.953644  -11.196509  12.863628  19.961624  71.998277  -17.003447  -17.223703  -45.418289  -106.742309  65.502143  6.286732  -6.429303  -18.233454  1.431681  10.986992  -13.705389  0.746824  8.291325  
0.0  93.25843  0.0  0.634676  39.794924  -92.209128  14.216172  -18.393836  16.839516  -3.080438  -0.843084  7.505932  2.324985  3.127824  1.769013  -20.842557  -2.383013  -32.990174  -5.475579  16.931521  37.2391  -0.434246  0.749302  1.553424  -0.349461  -0.056103  1.532048  -0.95833  -0.131147  4.188414  -0.95833  -0.131147  4.188414  -16.0474  22.327476  10.824876  146.620869  52.143287  -158.302218  -22.315969  1.044968  76.761526  61.647747  -5.424324  6.224354  9.593151  -10.955926  12.904654  24.915279  71.029092  -12.895002  -14.864518  -44.482631  -109.585334  66.092087  6.010611  -6.13196  -17.814613  1.588679  10.818063  -13.393216  0.877183  8.167608  
0.0  93.25843  0.0  0.764556  39.520928  -91.873176  13.754184  -17.974898  17.25628  -2.314797  -1.127135  6.926837  2.266061  3.186627  1.70957  -20.736925  -2.376627  -33.013088  -6.472474  17.247228  36.759685  -1.154079  0.835374  1.407985  -0.421372  -0.084943  1.470763  -1.156456  -0.206459  4.021534  -1.156456  -0.206459  4.021535  -16.618774  22.453787  10.384437  146.671085  53.446087  -158.298875  -22.667452  0.787764  77.511704  61.447514  -6.262364  5.481992  8.96706  -10.655402  12.785016  30.937647  69.986305  -8.064638  -13.281899  -43.277972  -111.981405  66.496642  5.580306  -5.892747  -17.414574  1.767836  10.72964  -13.095728  1.021318  8.104812  
